<svg xmlns="http://www.w3.org/2000/svg" viewBox="0 0 64 64" fill="none">
  <rect width="64" height="64" rx="14" fill="#0B1224"/>
  <path fill="#E2E8F0" d="M32 12c-8.8 0-16 7.2-16 16.1 0 7.1 4.6 13.1 11 15.2.8.1 1.1-.3 1.1-.8v-2.7c-4.5 1-5.4-2.2-5.4-2.2-.7-1.9-1.8-2.3-1.8-2.3-1.5-1 .1-1 .1-1 1.6.1 2.5 1.7 2.5 1.7 1.4 2.4 3.7 1.7 4.6 1.3.1-1 .6-1.7 1-2.1-3.5-.4-7.3-1.8-7.3-7.9 0-1.7.6-3.2 1.6-4.3-.2-.4-.7-2 .2-4.2 0 0 1.3-.4 4.4 1.6A15 15 0 0 1 32 20c1.4 0 2.7.2 4 .5 3-2 4.3-1.6 4.3-1.6.9 2.2.3 3.8.2 4.2 1 1.1 1.6 2.6 1.6 4.3 0 6.2-3.7 7.5-7.3 7.9.6.5 1.1 1.5 1.1 3v4.4c0 .4.3 1 1.1.8 6.4-2.1 11-8.1 11-15.2C48 19.2 40.8 12 32 12Z"/>
</svg>
